<?xml version="1.0" encoding="UTF-8" standalone="no"?>
<!-- Created with Inkscape (http://www.inkscape.org/) -->

<svg
   xmlns:dc="http://purl.org/dc/elements/1.1/"
   xmlns:cc="http://creativecommons.org/ns#"
   xmlns:rdf="http://www.w3.org/1999/02/22-rdf-syntax-ns#"
   xmlns:svg="http://www.w3.org/2000/svg"
   xmlns="http://www.w3.org/2000/svg"
   xmlns:sodipodi="http://sodipodi.sourceforge.net/DTD/sodipodi-0.dtd"
   xmlns:inkscape="http://www.inkscape.org/namespaces/inkscape"
   width="296.21887"
   height="342.0441"
   id="svg2"
   version="1.1"
   inkscape:version="0.48.2 r9819"
   sodipodi:docname="ingress.svg">
  <defs
     id="defs4" />
  <sodipodi:namedview
     id="base"
     pagecolor="#ffffff"
     bordercolor="#666666"
     borderopacity="1.0"
     inkscape:pageopacity="0.0"
     inkscape:pageshadow="2"
     inkscape:zoom="1"
     inkscape:cx="260.20925"
     inkscape:cy="163.95663"
     inkscape:document-units="px"
     inkscape:current-layer="layer1"
     showgrid="false"
     inkscape:window-width="1210"
     inkscape:window-height="823"
     inkscape:window-x="330"
     inkscape:window-y="110"
     inkscape:window-maximized="0"
     showguides="true"
     inkscape:guide-bbox="true"
     fit-margin-top="0"
     fit-margin-left="0"
     fit-margin-right="0"
     fit-margin-bottom="0">
    <inkscape:grid
       type="xygrid"
       id="grid3839"
       empspacing="5"
       visible="true"
       enabled="true"
       snapvisiblegridlinesonly="true" />
  </sodipodi:namedview>
  <metadata
     id="metadata7">
    <rdf:RDF>
      <cc:Work
         rdf:about="">
        <dc:format>image/svg+xml</dc:format>
        <dc:type
           rdf:resource="http://purl.org/dc/dcmitype/StillImage" />
        <dc:title />
      </cc:Work>
    </rdf:RDF>
  </metadata>
  <g
     inkscape:groupmode="layer"
     id="layer2"
     inkscape:label="Background"
     style="display:inline"
     transform="translate(-201.89057,-302.34014)">
    <g
       id="g3977"
       transform="matrix(0.50003223,0,0,0.50003223,174.98872,236.66584)">
      <path
         d="m 350,144.0402 0,151.89762 m 153.25368,269.12696 131.54723,75.9488 M 62.057815,640.07708 193.60504,564.12828 M 646.19977,644.3732 350,815.38423 53.80023,644.37319 l 0,-342.02202 L 350,131.34014 646.19977,302.35117 z"
         style="fill:#231f20;fill-opacity:1;stroke:none"
         id="path3783-4-9"
         inkscape:connector-curvature="0" />
      <path
         sodipodi:nodetypes="ccccccccccccc"
         d="m 350,169.30891 0,140.2426 m 141.49459,248.47696 121.45367,70.12128 M 84.151493,627.28512 205.60516,557.16383 M 623.4725,631.25159 394.48485,760.86831 393.19417,443.3728 170.46689,260.92731 350,157.58333 623.4725,315.47276 z"
         style="fill:#949293;fill-opacity:1;stroke:none;display:inline"
         id="path3783-4-9-8"
         inkscape:connector-curvature="0" />
    </g>
  </g>
  <g
     inkscape:label="Ingress"
     inkscape:groupmode="layer"
     id="layer1"
     style="display:inline"
     transform="translate(-201.89057,-302.34014)">
    <g
       id="g3903"
       transform="matrix(0.50013724,0,0,0.50013724,174.95196,236.61613)">
      <path
         d="m 350,204.22387 0,124.13831 M 475.24653,548.3061 582.75347,610.37525 M 114.67932,609.6099 222.18626,547.54075 M 592.06919,613.1209 350,752.87961 107.93081,613.12089 l 0,-279.51742 L 350,193.84476 592.06919,333.60347 z"
         style="fill:none;stroke:#ffffff;stroke-width:20;stroke-linecap:butt;stroke-linejoin:miter;stroke-miterlimit:4;stroke-opacity:1;stroke-dasharray:none"
         id="path3783-4"
         inkscape:connector-curvature="0" />
      <path
         d="m 350,681.02885 0,-211.33333 M 544.04515,358.24158 349.09562,470.79575 M 160.55714,360.98542 351.10953,471.0009 M 150.8257,355.12902 350,700.10903 548.94612,355.52428 z"
         style="fill:none;stroke:#ffffff;stroke-width:20;stroke-linecap:butt;stroke-linejoin:miter;stroke-miterlimit:4;stroke-opacity:1;stroke-dasharray:none"
         id="path3854"
         inkscape:connector-curvature="0" />
    </g>
  </g>
</svg>
